<?xml version="1.0" encoding="utf-8"?>
<!-- Generator: Adobe Illustrator 24.2.3, SVG Export Plug-In . SVG Version: 6.00 Build 0)  -->
<svg version="1.1" id="_eg90l3bab_1" xmlns="http://www.w3.org/2000/svg" xmlns:xlink="http://www.w3.org/1999/xlink" x="0px"
	 y="0px" viewBox="0 0 512 512" style="enable-background:new 0 0 512 512;" xml:space="preserve">
<style type="text/css">
	.st0{fill:#557D55;}
	.st1{fill:#FFFFFF;stroke:#1E252A;stroke-width:5.5934;stroke-linecap:round;stroke-linejoin:round;stroke-miterlimit:11.1869;}
	.st2{fill:#1E252A;stroke:#1E252A;stroke-width:5.5934;stroke-linecap:round;stroke-miterlimit:11.1869;}
	.st3{fill:#1E252A;}
	.st4{fill:#FFFFFF;stroke:#1E252A;stroke-width:5.5934;stroke-miterlimit:11.1869;}
</style>
<path id="_eg90l3bab_209" class="st0" d="M190,225.1c0,39.9,32.3,72.2,72.2,72.2s72.2-32.3,72.2-72.2s-32.3-72.2-72.2-72.2
	S190,185.2,190,225.1"/>
<path id="_eg90l3bab_128" class="st1" d="M202.9,154.5c-6.2,0-11.2-5-11.2-11.2c0,6.2-5,11.2-11.2,11.2c6.2,0,11.2,5,11.2,11.2
	C191.7,159.5,196.7,154.5,202.9,154.5L202.9,154.5z"/>
<path id="_eg90l3bab_129" class="st2" d="M259.3,266.4h61"/>
<path id="_eg90l3bab_130" class="st2" d="M202.9,266.4h39"/>
<path id="_eg90l3bab_131" class="st2" d="M202.1,232.8h-10.5"/>
<path id="_eg90l3bab_132" class="st2" d="M275.6,232.8h-53.1"/>
<path id="_eg90l3bab_133" class="st2" d="M298,249.6h-58.7"/>
<path id="_eg90l3bab_134" class="st2" d="M264.4,280.4h-47.5"/>
<path id="_eg90l3bab_135" class="st2" d="M272.8,216.1h-28"/>
<path id="_eg90l3bab_136" class="st2" d="M219.6,216.1h-28"/>
<path id="_eg90l3bab_137" class="st2" d="M270,185.3h-28"/>
<path id="_eg90l3bab_138" class="st2" d="M331.5,232.8H298"/>
<path id="_eg90l3bab_139" class="st2" d="M252.1,168.5h-35.3"/>
<path id="_eg90l3bab_140" class="st2" d="M286.8,168.5H270"/>
<path id="_eg90l3bab_141" class="st2" d="M265.1,202.1h63.6"/>
<path id="_eg90l3bab_142" class="st2" d="M194.5,202.1h52.2"/>
<path id="_eg90l3bab_152" class="st3" d="M261.1,300.1c-41.3,0-75-33.7-75-75s33.7-75,75-75s75,33.7,75,75S302.4,300.1,261.1,300.1z
	 M261.1,155.4c-38.4,0-69.7,31.3-69.7,69.7s31.3,69.7,69.7,69.7s69.7-31.3,69.7-69.7S299.5,155.4,261.1,155.4z"/>
<path id="_eg90l3bab_123" class="st3" d="M328.7,288.8c0,1.5-1.3,2.8-2.8,2.8s-2.8-1.3-2.8-2.8s1.3-2.8,2.8-2.8
	C327.5,286,328.7,287.2,328.7,288.8"/>
<path id="_eg90l3bab_124" class="st3" d="M339.9,168.5c0,1.5-1.3,2.8-2.8,2.8s-2.8-1.3-2.8-2.8s1.3-2.8,2.8-2.8
	S339.9,167,339.9,168.5"/>
<path id="_eg90l3bab_125" class="st3" d="M200.1,300c0,1.5-1.3,2.8-2.8,2.8s-2.8-1.3-2.8-2.8s1.3-2.8,2.8-2.8S200.1,298.4,200.1,300
	"/>
<path id="_eg90l3bab_126" class="st4" d="M320.3,165.7c0,9.3-7.5,16.8-16.8,16.8s-16.8-7.5-16.8-16.8s7.5-16.8,16.8-16.8
	S320.3,156.5,320.3,165.7L320.3,165.7z"/>
<path id="_eg90l3bab_127" class="st4" d="M300.7,291.6c0,6.2-5,11.2-11.2,11.2s-11.2-5-11.2-11.2s5-11.2,11.2-11.2
	S300.7,285.4,300.7,291.6L300.7,291.6z"/>
<path id="_eg90l3bab_225" class="st3" d="M96.5,318.7c0.3-0.6,0.8-1,1.5-1.2s1.6-0.3,2.7-0.3s1.9,0.1,2.6,0.3
	c0.6,0.2,1.1,0.4,1.5,0.7c0.3,0.3,0.6,0.6,0.8,1.1l0,0c0.2,0.6,0.3,1.6,0.3,2.9l0,0v31.1c0,0.9,0,1.5-0.1,1.9s-0.2,0.9-0.5,1.5l0,0
	c-0.5,1-2,1.5-4.4,1.5l0,0c-2.6,0-4.1-0.7-4.6-2.1l0,0c-0.2-0.6-0.3-1.6-0.3-2.9l0,0v-11.4H81.1v11.4c0,0.9,0,1.5-0.1,1.9
	s-0.2,0.9-0.5,1.5l0,0c-0.5,1-2,1.5-4.4,1.5l0,0c-2.6,0-4.1-0.7-4.6-2.1l0,0c-0.2-0.6-0.3-1.6-0.3-2.9l0,0V322c0-0.9,0-1.5,0.1-1.9
	s0.2-0.9,0.5-1.5l0,0c0.5-1,2-1.5,4.4-1.5l0,0c2.6,0,4.2,0.7,4.7,2.1l0,0c0.2,0.6,0.3,1.6,0.3,2.9l0,0v11.4H96V322
	c0-0.9,0-1.5,0.1-1.9C96.1,319.8,96.2,319.3,96.5,318.7z M129.5,331.9L129.5,331.9c0.2-2.1,1.7-3.1,4.4-3.1l0,0
	c1.5,0,2.5,0.1,3.2,0.3c0.7,0.2,1.2,0.6,1.5,1.2s0.5,1.1,0.5,1.5c0.1,0.4,0.1,1.1,0.1,1.9l0,0v19.6c0,0.9,0,1.5-0.1,1.9
	s-0.2,0.9-0.5,1.5l0,0c-0.5,1-1.8,1.4-3.8,1.4s-3.4-0.2-4.1-0.7c-0.7-0.5-1.1-1.2-1.2-2.2l0,0c-1.4,2-3.7,3-6.9,3
	c-3.2,0-6.2-1.5-9-4.4s-4.1-6.4-4.1-10.3s1.4-7.3,4.2-10.2c2.8-2.9,5.8-4.4,9.1-4.4l0,0c1.3,0,2.4,0.2,3.5,0.7
	c1,0.4,1.8,0.9,2.2,1.3C128.9,331.1,129.2,331.5,129.5,331.9z M119.3,343.5c0,1.2,0.5,2.3,1.5,3.3s2.1,1.5,3.5,1.5s2.5-0.5,3.4-1.5
	s1.4-2.1,1.4-3.3c0-1.2-0.4-2.3-1.3-3.4c-0.9-1-2.1-1.6-3.5-1.6c-1.5,0-2.7,0.5-3.6,1.6C119.7,341.1,119.3,342.3,119.3,343.5z
	 M163.7,329.1c0.7,0.2,1.3,0.6,1.8,1.2c0.5,0.5,0.7,1.4,0.7,2.6s-0.4,2.5-1.1,3.9c-0.7,1.4-1.7,2.1-3.1,2.1l0,0
	c-0.7,0-1.3-0.1-1.9-0.4c-0.6-0.3-1.4-0.5-2.4-0.5s-2,0.4-2.8,1.1c-0.9,0.7-1.3,1.6-1.3,2.6l0,0v11.8c0,0.9,0,1.5-0.1,1.9
	s-0.2,0.9-0.5,1.5l0,0c-0.6,1-2,1.5-4.4,1.5l0,0c-1.8,0-3.1-0.3-3.9-1l0,0c-0.6-0.5-0.9-1.3-1-2.4l0,0c0-0.4,0-0.9,0-1.6l0,0v-19.7
	c0-0.9,0-1.5,0.1-1.9s0.2-0.9,0.5-1.4l0,0c0.5-1,2-1.5,4.4-1.5l0,0c2.2,0,3.6,0.4,4.2,1.3l0,0c0.4,0.6,0.6,1.2,0.6,1.8l0,0
	c0.2-0.3,0.5-0.6,0.8-0.9c0.3-0.4,1.1-0.9,2.3-1.5s2.2-1,3.1-1c0.9,0,1.6,0,2.2,0.1C162.4,328.7,163,328.8,163.7,329.1z M199,329.4
	L199,329.4c1.9,1.2,2.9,2.4,2.9,3.7l0,0c0,0.7-0.4,1.8-1.1,3.1l0,0l-11.6,19.9c-0.4,0.6-1,1.2-1.8,1.7s-1.6,0.8-2.4,0.8
	c-0.8,0-1.6-0.2-2.3-0.6s-1.2-0.8-1.5-1.2l0,0l-0.5-0.6l-11.7-20c-0.7-1.2-1.1-2.2-1.1-3l0,0c0-1.3,1-2.6,2.9-3.8l0,0
	c1.4-0.8,2.5-1.2,3.4-1.2c0.8,0,1.5,0.3,1.9,0.8s1,1.3,1.5,2.3l0,0l7.3,14.1l7.3-14.1c0.4-0.7,0.7-1.2,0.9-1.5s0.5-0.6,1-1
	c0.5-0.3,1-0.5,1.8-0.5S197.7,328.6,199,329.4z M231.7,340c0,2.3-0.6,4-1.7,5.1c-1.1,1.1-2.4,1.6-3.8,1.6l0,0H213
	c0,1,0.6,1.9,1.9,2.6c1.2,0.7,2.5,1.1,3.7,1.1l0,0c2.2,0,3.9-0.2,5.1-0.7l0,0l0.6-0.2c0.9-0.4,1.6-0.6,2.2-0.6l0,0
	c1.2,0,2.2,0.8,3.1,2.5l0,0c0.5,1,0.7,1.9,0.7,2.6l0,0c0,3.3-4,5-11.9,5l0,0c-2.8,0-5.2-0.5-7.4-1.4c-2.1-0.9-3.8-2.2-5-3.8l0,0
	c-2.3-3-3.5-6.4-3.5-10.1l0,0c0-4.7,1.5-8.5,4.6-11.3s6.8-4.2,11.4-4.2l0,0c5.2,0,9,1.8,11.4,5.5l0,0
	C231.1,335.5,231.7,337.7,231.7,340z M212.9,341.6h7.1c1.4,0,2.1-0.6,2.1-1.8l0,0c0-0.9-0.3-1.6-1-2.1s-1.6-0.8-2.8-0.8
	s-2.4,0.5-3.6,1.5C213.5,339.4,212.9,340.5,212.9,341.6L212.9,341.6z M235.6,355.6L235.6,355.6c-0.7-0.4-1.1-1.2-1.1-2.1
	c0-1,0.7-2.4,2.1-4.4l0,0c0.4-0.6,1.1-1,2-1s2.1,0.5,3.7,1.4c1.6,0.9,3,1.4,4.3,1.4l0,0c2.3,0,3.4-0.4,3.4-1.3l0,0
	c0-0.7-1.3-1.2-3.8-1.6l0,0c-2.3-0.3-4.7-1.2-7-2.6l0,0c-1.1-0.7-2-1.7-2.7-3.2c-0.7-1.4-1.1-3.1-1.1-5.1l0,0
	c0-5.9,4.1-8.9,12.2-8.9l0,0c2.7,0,5.4,0.6,8.2,1.9l0,0c1.3,0.6,2,1.3,2,2.2c0,0.9-0.4,2-1.2,3.3c-0.8,1.3-1.7,2-2.5,2l0,0
	c-0.4,0-1.3-0.3-2.5-0.8c-1.2-0.6-2.5-0.8-4-0.8l0,0c-2.2,0-3.3,0.4-3.3,1.2l0,0c0,1.1,1.3,1.9,3.8,2.2l0,0c2.5,0.3,4.9,1,7.2,2.1
	l0,0c1.1,0.5,2,1.4,2.7,2.7c0.7,1.3,1.1,2.9,1.1,4.8s-0.4,3.6-1.1,5s-1.7,2.4-3.1,3l0,0c-2.4,1.2-5.4,1.7-9,1.7
	C242.4,358.7,238.9,357.7,235.6,355.6z M279,338.6L279,338.6l-3.6-0.2v7.7c0,1,0.2,1.7,0.5,2.2s0.9,0.7,1.8,0.7s1.6,0,2,0.1
	c0.5,0.1,1,0.2,1.5,0.5l0,0c0.9,0.5,1.3,1.7,1.3,3.7l0,0c0,2.4-0.5,3.8-1.6,4.3l0,0c-0.6,0.3-1.1,0.4-1.5,0.5s-1.1,0.1-1.9,0.1l0,0
	c-3.9,0-6.8-0.9-8.8-2.6s-3-4.7-3-8.9l0,0v-8.3c-0.7,0.1-1.5,0.2-2.3,0.2s-1.5-0.3-2-0.9s-0.8-1.7-0.8-3.3s0.1-2.6,0.3-3.3
	c0.2-0.7,0.4-1.2,0.8-1.5l0,0c0.6-0.5,1.3-0.7,2.2-0.7l0,0l1.9,0.2v-5.8c0-0.9,0-1.5,0.1-1.9s0.2-0.9,0.5-1.4l0,0
	c0.5-0.9,1.9-1.4,4.3-1.4l0,0c2.5,0,4,0.7,4.5,2.1l0,0c0.2,0.6,0.3,1.6,0.3,2.9l0,0v5.5c1.6-0.1,2.9-0.2,3.7-0.2
	c0.8,0,1.5,0,1.9,0.1s0.9,0.2,1.5,0.5l0,0c1,0.5,1.5,1.9,1.5,4.3l0,0c0,2.4-0.5,3.8-1.5,4.3l0,0c-0.6,0.3-1.1,0.4-1.5,0.5
	C280.5,338.6,279.8,338.6,279,338.6z M303.2,328.8L303.2,328.8c3.3,0,6.4,1.5,9.2,4.4c2.8,3,4.2,6.4,4.2,10.3s-1.4,7.3-4.2,10.3
	c-2.8,2.9-5.7,4.4-8.9,4.4s-5.4-0.9-6.8-2.7l0,0c-0.3,1.8-1.9,2.7-4.8,2.7l0,0c-2.4,0-3.8-0.5-4.3-1.5l0,0c-0.3-0.6-0.4-1.1-0.5-1.5
	s-0.1-1.1-0.1-1.9l0,0v-33.4c0-0.9,0-1.5,0.1-1.9s0.2-0.9,0.5-1.4l0,0c0.5-1,2-1.5,4.4-1.5l0,0c2.4,0,3.8,0.5,4.3,1.5l0,0
	c0.3,0.6,0.5,1.1,0.5,1.5c0.1,0.4,0.1,1.1,0.1,1.9l0,0v11.6C298.3,329.7,300.4,328.8,303.2,328.8z M298.3,346.9
	c0.9,1,2.1,1.5,3.4,1.5c1.4,0,2.6-0.5,3.5-1.5c1-1,1.5-2.1,1.5-3.4c0-1.2-0.5-2.4-1.4-3.4s-2.1-1.5-3.6-1.5s-2.7,0.5-3.6,1.6
	c-0.9,1-1.3,2.2-1.3,3.4S297.4,345.9,298.3,346.9z M319.3,343.5c0-4.5,1.6-8.2,4.7-11.1s6.7-4.4,10.8-4.4c4,0,7.6,1.4,10.7,4.3
	s4.6,6.6,4.6,11.1l0,0c0,3.1-0.8,5.8-2.4,8.3c-1.6,2.4-3.6,4.2-5.9,5.3c-2.3,1.1-4.7,1.7-7.1,1.7s-4.9-0.6-7.2-1.8
	c-2.3-1.2-4.3-3-5.9-5.4C320.1,349.2,319.3,346.5,319.3,343.5L319.3,343.5z M331,347.5c1.2,0.9,2.4,1.4,3.6,1.4s2.5-0.5,3.7-1.4
	s1.8-2.3,1.8-4.1c0-1.8-0.6-3.2-1.7-4.1c-1.2-0.9-2.4-1.3-3.8-1.3s-2.6,0.5-3.8,1.4c-1.2,0.9-1.7,2.3-1.7,4.1
	C329.2,345.2,329.8,346.6,331,347.5z M373.8,329.1c0.7,0.2,1.3,0.6,1.8,1.2c0.5,0.5,0.7,1.4,0.7,2.6s-0.4,2.5-1.1,3.9
	s-1.7,2.1-3.1,2.1l0,0c-0.7,0-1.3-0.1-1.9-0.4s-1.4-0.5-2.4-0.5s-2,0.4-2.8,1.1c-0.9,0.7-1.3,1.6-1.3,2.6l0,0v11.8
	c0,0.9,0,1.5-0.1,1.9s-0.2,0.9-0.5,1.5l0,0c-0.6,1-2,1.5-4.4,1.5l0,0c-1.8,0-3.1-0.3-3.9-1l0,0c-0.6-0.5-0.9-1.3-1-2.4l0,0
	c0-0.4,0-0.9,0-1.6l0,0v-19.7c0-0.9,0-1.5,0.1-1.9s0.2-0.9,0.5-1.4l0,0c0.5-1,2-1.5,4.4-1.5l0,0c2.2,0,3.6,0.4,4.2,1.3l0,0
	c0.4,0.6,0.6,1.2,0.6,1.8l0,0c0.2-0.3,0.5-0.6,0.8-0.9c0.3-0.4,1.1-0.9,2.3-1.5c1.2-0.6,2.2-1,3.1-1s1.6,0,2.2,0.1
	C372.4,328.7,373,328.8,373.8,329.1z M395.7,328.7L395.7,328.7c3.7,0,6.8,1.4,9.3,4.3s3.7,6.3,3.7,10.4l0,0v9.9c0,0.9,0,1.5-0.1,1.9
	s-0.2,0.9-0.5,1.4l0,0c-0.5,1-2,1.5-4.4,1.5l0,0c-2.6,0-4.2-0.7-4.6-2.1l0,0c-0.2-0.6-0.3-1.6-0.3-2.9l0,0v-9.9
	c0-1.5-0.4-2.7-1.3-3.6s-2.1-1.3-3.5-1.3c-1.5,0-2.7,0.5-3.6,1.4s-1.4,2.1-1.4,3.5l0,0v9.9c0,0.9,0,1.5-0.1,1.9s-0.2,0.9-0.5,1.4
	l0,0c-0.5,1-1.9,1.5-4.3,1.5l0,0c-2.4,0-3.8-0.5-4.3-1.5l0,0c-0.3-0.6-0.4-1.1-0.5-1.5s-0.1-1.1-0.1-1.9l0,0v-19.8
	c0-0.8,0-1.5,0.1-1.9s0.2-0.9,0.5-1.4l0,0c0.5-0.9,2-1.4,4.3-1.4l0,0c2.3,0,3.7,0.4,4.2,1.3l0,0c0.4,0.6,0.6,1.4,0.6,2.3l0,0
	c0.2-0.3,0.5-0.6,1-1.1s1-0.9,1.5-1.2l0,0C392.8,329.2,394.2,328.7,395.7,328.7z M441.7,340c0,2.3-0.6,4-1.7,5.1s-2.4,1.6-3.8,1.6
	l0,0h-13.3c0,1,0.6,1.9,1.9,2.6c1.2,0.7,2.5,1.1,3.7,1.1l0,0c2.2,0,3.9-0.2,5.1-0.7l0,0l0.6-0.2c0.9-0.4,1.6-0.6,2.2-0.6l0,0
	c1.2,0,2.2,0.8,3.1,2.5l0,0c0.5,1,0.7,1.9,0.7,2.6l0,0c0,3.3-4,5-11.9,5l0,0c-2.8,0-5.2-0.5-7.4-1.4c-2.1-0.9-3.8-2.2-5-3.8l0,0
	c-2.3-3-3.5-6.4-3.5-10.1l0,0c0-4.7,1.5-8.5,4.6-11.3s6.8-4.2,11.4-4.2l0,0c5.2,0,9,1.8,11.4,5.5l0,0
	C441,335.5,441.7,337.7,441.7,340z M422.8,341.6h7.1c1.4,0,2.1-0.6,2.1-1.8l0,0c0-0.9-0.3-1.6-1-2.1s-1.6-0.8-2.8-0.8
	s-2.4,0.5-3.6,1.5C423.4,339.4,422.8,340.5,422.8,341.6L422.8,341.6z"/>
</svg>
